# 3ds Max Wavefront OBJ Exporter v0.97b - (c)2007 guruware
# çÏê¨ÇµÇΩÉtÉ@ÉCÉã : 16.03.2021 15:02:21

mtllib cource05_lake.mtl

#
# object åŒ
#

v  356.4036 0.0000 131.4145
v  361.7883 0.0000 101.1673
v  368.4370 0.0000 60.5185
v  369.8455 0.0000 12.0525
v  372.4685 0.0000 -17.4688
v  371.8867 0.0000 -52.5646
v  367.5650 0.0000 -84.4642
v  362.1069 0.0000 -112.9976
v  352.3299 0.0000 -136.4782
v  338.6097 0.0000 -154.0041
v  321.4736 0.0000 -164.9014
v  301.5801 0.0000 -168.7515
v  279.6937 0.0000 -165.4064
v  256.6556 0.0000 -154.9947
v  233.3510 0.0000 -137.9164
v  210.6754 0.0000 -114.8279
v  189.5004 0.0000 -86.6166
v  170.6397 0.0000 -54.3663
v  154.8181 0.0000 -19.3167
v  145.4205 0.0000 9.7044
v  138.7049 0.0000 39.0731
v  137.7654 0.0000 67.1222
v  139.2083 0.0000 88.6573
v  144.6664 0.0000 117.1907
v  154.4434 0.0000 140.6714
v  168.1636 0.0000 158.1971
v  185.2997 0.0000 169.0944
v  205.1932 0.0000 172.9445
v  230.0668 0.0000 173.2531
v  260.9702 0.0000 168.9134
v  298.1049 0.0000 160.5035
v  326.5470 0.0000 153.1657
# 32 vertices

vn 0.0000 1.0000 -0.0000
vn 0.0000 -1.0000 -0.0000
# 2 vertex normals

vt 0.4025 0.9904 0.2500
vt 0.3087 0.9619 0.2500
vt 0.2222 0.9157 0.2500
vt 0.1464 0.8536 0.2500
vt 0.0843 0.7778 0.2500
vt 0.0381 0.6913 0.2500
vt 0.0096 0.5975 0.2500
vt 0.0000 0.5000 0.2500
vt 0.0096 0.4025 0.2500
vt 0.0381 0.3087 0.2500
vt 0.0843 0.2222 0.2500
vt 0.1464 0.1464 0.2500
vt 0.2222 0.0843 0.2500
vt 0.3087 0.0381 0.2500
vt 0.4025 0.0096 0.2500
vt 0.5000 0.0000 0.2500
vt 0.5975 0.0096 0.2500
vt 0.6913 0.0381 0.2500
vt 0.7778 0.0843 0.2500
vt 0.8536 0.1464 0.2500
vt 0.9157 0.2222 0.2500
vt 0.9619 0.3087 0.2500
vt 0.9904 0.4025 0.2500
vt 1.0000 0.5000 0.2500
vt 0.9904 0.5975 0.2500
vt 0.9619 0.6913 0.2500
vt 0.9157 0.7778 0.2500
vt 0.8536 0.8536 0.2500
vt 0.7778 0.9157 0.2500
vt 0.6913 0.9619 0.2500
vt 0.5975 0.9904 0.2500
vt 0.5000 1.0000 0.2500
# 32 texture coords

g åŒ
usemtl Material__7
s 1
f 1/1/1 2/2/1 3/3/1 
f 3/3/1 4/4/2 5/5/1 
f 5/5/1 6/6/1 7/7/1 
f 3/3/1 5/5/1 7/7/1 
f 7/7/1 8/8/1 9/9/1 
f 9/9/1 10/10/1 11/11/1 
f 7/7/1 9/9/1 11/11/1 
f 11/11/1 12/12/1 13/13/1 
f 13/13/1 14/14/1 15/15/1 
f 11/11/1 13/13/1 15/15/1 
f 7/7/1 11/11/1 15/15/1 
f 15/15/1 16/16/1 17/17/1 
f 17/17/1 18/18/1 19/19/1 
f 15/15/1 17/17/1 19/19/1 
f 19/19/1 20/20/1 21/21/1 
f 21/21/1 22/22/1 23/23/1 
f 19/19/1 21/21/1 23/23/1 
f 15/15/1 19/19/1 23/23/1 
f 23/23/1 24/24/1 25/25/1 
f 25/25/1 26/26/1 27/27/1 
f 23/23/1 25/25/1 27/27/1 
f 27/27/1 28/28/1 29/29/1 
f 29/29/1 30/30/1 31/31/1 
f 27/27/1 29/29/1 31/31/1 
f 23/23/1 27/27/1 31/31/1 
f 15/15/1 23/23/1 31/31/1 
f 7/7/1 15/15/1 31/31/1 
f 3/3/1 7/7/1 31/31/1 
f 1/1/1 3/3/1 31/31/1 
f 32/32/1 1/1/1 31/31/1 
# 30 faces

