# 3ds Max Wavefront OBJ Exporter v0.97b - (c)2007 guruware
# ì¬‚µ‚½ƒtƒ@ƒCƒ‹ : 15.03.2021 15:49:18

mtllib cource05grass.mtl

#
# object ‘Œ´002
#

v  -250.0000 0.0000 250.0000
v  250.0000 0.0000 250.0000
v  250.0000 0.0000 -250.0000
v  -250.0000 0.0000 -250.0000
# 4 vertices

vn 0.0000 1.0000 -0.0000
# 1 vertex normals

vt 0.0000 0.0000 0.0000
vt 1.0000 0.0000 0.0000
vt 1.0000 1.0000 0.0000
vt 0.0000 1.0000 0.0000
# 4 texture coords

g ‘Œ´002
usemtl Material__6
s 4
f 1/1/1 2/2/1 3/3/1 
f 3/3/1 4/4/1 1/1/1 
# 2 faces

